<svg width="40" height="40" viewBox="0 0 40 40" fill="none" xmlns="http://www.w3.org/2000/svg">
<rect width="40" height="40" rx="20" fill="#E6EEF5"/>
<path d="M18.59 21.4105C19 21.8005 19 22.4405 18.59 22.8305C18.2 23.2205 17.56 23.2205 17.17 22.8305C16.2334 21.8925 15.7073 20.6211 15.7073 19.2955C15.7073 17.9699 16.2334 16.6985 17.17 15.7605L20.71 12.2205C21.648 11.2839 22.9194 10.7578 24.245 10.7578C25.5706 10.7578 26.842 11.2839 27.78 12.2205C28.7166 13.1585 29.2427 14.4299 29.2427 15.7555C29.2427 17.0811 28.7166 18.3525 27.78 19.2905L26.29 20.7805C26.3 19.9605 26.17 19.1405 25.89 18.3605L26.36 17.8805C26.6404 17.6032 26.8629 17.273 27.0148 16.9091C27.1667 16.5452 27.2449 16.1548 27.2449 15.7605C27.2449 15.3662 27.1667 14.9758 27.0148 14.6119C26.8629 14.248 26.6404 13.9178 26.36 13.6405C26.0827 13.3602 25.7525 13.1376 25.3886 12.9857C25.0247 12.8338 24.6343 12.7556 24.24 12.7556C23.8457 12.7556 23.4553 12.8338 23.0914 12.9857C22.7275 13.1376 22.3973 13.3602 22.12 13.6405L18.59 17.1705C18.3097 17.4478 18.0871 17.778 17.9352 18.1419C17.7833 18.5058 17.7051 18.8962 17.7051 19.2905C17.7051 19.6848 17.7833 20.0752 17.9352 20.4391C18.0871 20.803 18.3097 21.1332 18.59 21.4105ZM21.41 17.1705C21.8 16.7805 22.44 16.7805 22.83 17.1705C23.7666 18.1085 24.2927 19.3799 24.2927 20.7055C24.2927 22.0311 23.7666 23.3025 22.83 24.2405L19.29 27.7805C18.352 28.7171 17.0806 29.2432 15.755 29.2432C14.4294 29.2432 13.158 28.7171 12.22 27.7805C11.2834 26.8425 10.7573 25.5711 10.7573 24.2455C10.7573 22.9199 11.2834 21.6485 12.22 20.7105L13.71 19.2205C13.7 20.0405 13.83 20.8605 14.11 21.6505L13.64 22.1205C13.3597 22.3978 13.1371 22.728 12.9852 23.0919C12.8333 23.4558 12.7551 23.8462 12.7551 24.2405C12.7551 24.6348 12.8333 25.0252 12.9852 25.3891C13.1371 25.753 13.3597 26.0832 13.64 26.3605C13.9173 26.6408 14.2475 26.8634 14.6114 27.0153C14.9753 27.1672 15.3657 27.2454 15.76 27.2454C16.1543 27.2454 16.5447 27.1672 16.9086 27.0153C17.2725 26.8634 17.6027 26.6408 17.88 26.3605L21.41 22.8305C21.6904 22.5532 21.9129 22.223 22.0648 21.8591C22.2167 21.4952 22.2949 21.1048 22.2949 20.7105C22.2949 20.3162 22.2167 19.9258 22.0648 19.5619C21.9129 19.198 21.6904 18.8678 21.41 18.5905C21.3129 18.4995 21.2355 18.3895 21.1826 18.2674C21.1296 18.1453 21.1023 18.0136 21.1023 17.8805C21.1023 17.7474 21.1296 17.6157 21.1826 17.4936C21.2355 17.3715 21.3129 17.2615 21.41 17.1705Z" fill="#005596"/>
</svg>
