<svg width="18" height="18" viewBox="0 0 18 18" fill="none" xmlns="http://www.w3.org/2000/svg">
<path d="M8.25017 15C8.03767 15 7.85968 14.928 7.71618 14.784C7.57218 14.6405 7.50017 14.4625 7.50017 14.25V9.75L3.15017 4.2C2.96267 3.95 2.93467 3.6875 3.06617 3.4125C3.19717 3.1375 3.42517 3 3.75017 3H14.2502C14.5752 3 14.8034 3.1375 14.9349 3.4125C15.0659 3.6875 15.0377 3.95 14.8502 4.2L10.5002 9.75V14.25C10.5002 14.4625 10.4284 14.6405 10.2849 14.784C10.1409 14.928 9.96267 15 9.75017 15H8.25017ZM9.00017 9.225L12.7127 4.5H5.28768L9.00017 9.225Z" fill="#132640"/>
</svg>
